<svg version="1.1" id="Layer_1" xmlns="http://www.w3.org/2000/svg" xmlns:xlink="http://www.w3.org/1999/xlink" x="0px" y="0px"
	 width="100%" viewBox="0 0 1375 793" enable-background="new 0 0 1375 793" xml:space="preserve">
<path fill="#FFFFFF" opacity="1.000000" stroke="none" 
	d="
M1027.000000,794.000000 
	C684.706055,794.000000 342.912109,794.000000 1.059077,794.000000 
	C1.059077,529.736511 1.059077,265.473022 1.059077,1.000000 
	C230.070374,1.000000 459.140808,1.000000 688.211243,1.000000 
	C917.351501,1.000000 1146.491821,1.000000 1375.816040,1.000000 
	C1375.816040,265.333221 1375.816040,529.666626 1375.816040,794.000000 
	C1259.806274,794.000000 1143.653076,794.000000 1027.000000,794.000000 
M517.014648,628.105774 
	C517.014648,604.844421 517.014648,581.583069 517.014648,558.380676 
	C508.633972,558.380676 500.913147,558.380676 493.259125,558.380676 
	C493.259125,599.691589 493.259125,640.621887 493.259125,681.680237 
	C501.239502,681.680237 508.958405,681.680237 516.985168,681.680237 
	C516.985168,664.225525 516.985168,647.088196 517.665161,630.077026 
	C529.742798,646.002014 541.796509,661.945312 553.941711,677.818604 
	C554.959961,679.149536 556.564514,680.898621 557.945984,680.943787 
	C566.681824,681.229126 575.431519,681.088562 585.199280,681.088562 
	C571.495239,663.350708 558.437927,646.450134 545.328735,629.482239 
	C552.203491,620.604614 558.731445,612.190247 565.242432,603.762817 
	C571.705750,595.397095 578.151917,587.018188 585.182251,577.896973 
	C576.154785,577.896973 568.195740,578.040527 560.246521,577.824036 
	C557.200989,577.741150 555.474243,578.890015 553.721008,581.260986 
	C544.907471,593.179443 535.932922,604.979675 526.933655,616.759399 
	C523.735352,620.945923 520.307922,624.957397 517.014648,628.105774 
M773.145325,334.565643 
	C773.748169,338.820923 775.175110,343.145203 774.825745,347.320801 
	C771.537048,386.622131 767.993225,425.902527 764.405701,465.178253 
	C763.535767,474.703339 762.233459,484.188934 761.060608,494.290009 
	C824.488098,494.290009 887.333130,494.290009 949.930908,494.290009 
	C948.616882,493.921783 946.972778,493.289551 945.270752,493.009308 
	C904.888367,486.360992 864.510010,479.685760 824.094604,473.243195 
	C820.453918,472.662842 819.456909,471.049500 819.087891,467.878174 
	C817.972229,458.291473 816.586304,448.735962 815.495422,439.146698 
	C811.619385,405.073486 807.597351,371.010040 808.740845,336.599091 
	C808.972961,329.614838 808.835205,322.615356 808.752991,315.624268 
	C808.646851,306.593414 804.497925,300.606750 795.659607,297.789886 
	C789.330750,295.772827 783.099487,293.383026 776.975159,290.802338 
	C750.140015,279.494446 724.550232,266.143097 703.725220,245.174973 
	C701.683655,243.119400 699.763245,240.943466 697.763855,238.799057 
	C684.778931,254.900436 668.651001,266.488190 650.960754,275.558838 
	C634.724121,283.884186 617.794312,290.937073 600.865967,297.800995 
	C591.988220,301.400665 586.495117,306.468048 586.721741,316.470154 
	C586.770691,318.629791 586.527771,320.794556 586.524780,322.957092 
	C586.504944,337.272705 587.493469,351.669312 586.317749,365.887756 
	C583.521362,399.706451 579.679260,433.438232 576.351074,467.214172 
	C576.084229,469.922699 575.257812,471.355774 572.375854,471.819397 
	C535.093750,477.817200 497.824921,483.897522 460.556335,489.979065 
	C452.617706,491.274475 444.693451,492.657928 436.762573,494.000854 
	C436.807098,494.238342 436.851624,494.475861 436.896179,494.713379 
	C502.537109,494.713379 568.178040,494.713379 634.119446,494.713379 
	C633.999817,492.772919 633.946899,491.134247 633.791199,489.505402 
	C629.437622,443.951904 625.136108,398.393250 620.666260,352.851135 
	C619.594299,341.928925 622.178772,332.065521 627.867920,322.863983 
	C644.903564,295.310913 668.966431,275.061584 695.849609,257.823822 
	C697.130005,257.002808 700.154236,257.396118 701.486267,258.396149 
	C713.455444,267.382355 725.778015,276.013855 736.922607,285.953827 
	C752.010010,299.410461 765.460754,314.445129 773.145325,334.565643 
M728.651001,167.130981 
	C748.291260,118.280083 722.890808,70.812218 692.720093,41.968784 
	C690.332214,44.708797 687.652832,47.242207 685.619080,50.217030 
	C679.149658,59.680038 672.148315,68.892761 666.748291,78.951561 
	C652.428833,105.625092 648.556580,133.585007 659.106140,162.654205 
	C666.071655,181.847687 677.079773,198.574173 690.677002,213.693573 
	C692.197632,215.384415 693.374573,217.384369 694.989685,219.628357 
	C709.930420,203.472504 720.978149,186.850784 728.651001,167.130981 
M940.516113,583.260986 
	C940.401245,584.803101 940.286377,586.345215 940.181824,587.748352 
	C939.426025,587.826782 939.225769,587.914001 939.112061,587.849243 
	C937.813416,587.109802 936.530823,586.342407 935.238525,585.591614 
	C923.830933,578.963562 911.567017,576.815369 898.671143,579.273682 
	C871.984314,584.360901 853.052734,609.960754 856.297607,636.232483 
	C859.779480,664.422974 883.484131,684.975220 910.758484,683.450562 
	C939.528992,681.842285 961.051514,659.471985 961.111389,631.052612 
	C961.151733,611.891174 961.119202,592.729614 961.119202,573.568115 
	C961.119202,568.137878 961.119202,562.707581 961.119202,557.212036 
	C953.907471,557.212036 947.468567,557.212036 940.516846,557.212036 
	C940.516846,565.714783 940.516846,574.012817 940.516113,583.260986 
M571.050659,108.755432 
	C569.479370,121.551926 569.330627,134.305115 572.439758,146.922379 
	C578.536987,171.665375 594.863892,188.331451 615.788269,201.178116 
	C622.218384,205.125931 629.116089,208.312256 636.468567,212.201080 
	C645.268677,184.245560 649.291748,157.300262 636.766846,130.853378 
	C624.888245,105.771164 603.007019,91.631401 578.221558,80.769234 
	C577.448914,82.805023 576.769958,84.151802 576.424133,85.579269 
	C574.626526,92.999535 572.913696,100.440361 571.050659,108.755432 
M796.111328,185.616501 
	C828.873474,155.962814 824.545227,108.780640 812.630493,80.861595 
	C785.316101,93.467308 761.148499,109.480995 751.110107,139.712555 
	C743.089172,163.868301 746.813599,187.757950 754.973633,211.648346 
	C770.570984,205.261932 783.926270,197.026367 796.111328,185.616501 
M711.081604,626.574402 
	C704.619263,644.636536 698.156982,662.698730 691.441833,681.467529 
	C699.274353,681.467529 706.231812,681.628357 713.168396,681.319702 
	C714.422058,681.263916 716.163330,679.505188 716.696960,678.146790 
	C718.881165,672.585999 720.852234,666.925537 722.553345,661.198242 
	C723.327759,658.590942 724.631531,657.931885 727.167542,657.952881 
	C740.156250,658.060425 753.147949,657.910461 766.133667,658.136169 
	C767.536255,658.160522 769.620728,659.739807 770.167786,661.091919 
	C772.470154,666.781738 774.224915,672.690796 776.387268,678.441772 
	C776.826965,679.611084 778.136108,681.267822 779.090942,681.299438 
	C786.328308,681.539490 793.577209,681.430725 801.131409,681.430725 
	C800.885376,680.102905 800.854248,679.449707 800.642456,678.861450 
	C786.634644,639.941040 772.578247,601.038025 758.659302,562.085938 
	C757.612183,559.155579 756.068542,558.327698 753.181213,558.463928 
	C748.860962,558.667664 744.503906,558.773926 740.200256,558.437988 
	C736.545654,558.152771 735.035767,559.615295 733.861328,562.956909 
	C726.479370,583.960815 718.869873,604.884766 711.081604,626.574402 
M1074.335327,681.114319 
	C1075.262451,679.969666 1076.985229,678.833008 1076.996704,677.679199 
	C1077.156494,661.684814 1077.524902,645.672607 1076.967896,629.695251 
	C1075.943237,600.305603 1047.591919,577.512024 1018.722839,582.817749 
	C1011.670776,584.113770 1004.928406,587.094727 997.428040,589.498169 
	C997.428040,579.161865 997.428040,568.486389 997.428040,557.881653 
	C989.742859,557.881653 982.832336,557.881653 975.929077,557.881653 
	C975.929077,599.110352 975.929077,639.972961 975.929077,680.789307 
	C983.257202,680.789307 990.167786,680.789307 997.483032,680.789307 
	C997.483032,678.655212 997.482910,676.847107 997.482971,675.039062 
	C997.483459,660.875427 997.313049,646.709229 997.529602,632.548889 
	C997.776917,616.373169 1010.762939,603.716675 1026.642334,603.793823 
	C1042.516235,603.871033 1055.146118,616.751831 1055.198364,632.999878 
	C1055.243896,647.163330 1055.208008,661.327026 1055.208130,675.490662 
	C1055.208130,677.259277 1055.208130,679.027893 1055.208130,681.118286 
	C1061.725952,681.118286 1067.543213,681.118286 1074.335327,681.114319 
M608.504761,583.942261 
	C587.157349,596.089294 576.541260,618.400085 581.336731,641.038574 
	C589.012939,677.276367 629.615173,694.493774 661.003784,674.831299 
	C662.062805,674.167847 663.206116,673.638794 664.630920,672.875305 
	C664.850342,675.584839 665.029236,677.793884 665.199219,679.892700 
	C672.074036,679.892700 678.471863,679.892700 685.241760,679.892700 
	C685.241760,662.914001 685.611877,646.289490 685.167725,629.686707 
	C684.116150,590.378113 644.627991,566.571960 608.504761,583.942261 
M693.898682,410.499390 
	C693.898682,417.088806 693.898682,423.678223 693.898682,430.769409 
	C685.924255,430.769409 678.673584,430.769409 670.823975,430.769409 
	C669.488220,446.439972 668.396301,461.670624 666.812927,476.849976 
	C665.967041,484.958557 668.594666,491.657959 673.777588,497.426605 
	C678.210449,502.360382 682.727356,507.389130 687.951538,511.408203 
	C701.369263,521.730652 697.214844,521.640930 710.462036,511.367432 
	C724.320862,500.619446 735.085632,488.223541 731.203064,468.258972 
	C728.838745,456.101257 728.483704,443.552826 727.181519,430.741425 
	C721.178040,430.741425 715.694031,430.423431 710.265686,430.836823 
	C705.472961,431.201813 704.129211,429.679443 704.147705,424.819244 
	C704.330688,376.516479 704.259827,328.212708 704.253235,279.909241 
	C704.252991,278.245819 704.750366,276.222229 703.991394,275.005524 
	C702.920105,273.288025 700.915588,271.118958 699.266418,271.081879 
	C697.563965,271.043549 695.398254,273.035187 694.219971,274.695618 
	C693.415710,275.829010 693.906616,277.918152 693.906250,279.579987 
	C693.896667,322.886566 693.898621,366.193115 693.898682,410.499390 
M394.013428,672.518066 
	C406.233093,681.253967 419.659973,684.631653 434.615936,682.214661 
	C463.485626,677.549133 483.292572,649.280334 477.703766,620.438782 
	C472.015778,591.085388 443.444489,571.913635 414.727478,578.531799 
	C393.285217,583.473389 379.282501,596.940857 374.377472,618.250366 
	C369.429352,639.747070 376.252319,657.970642 394.013428,672.518066 
M1189.949585,607.305176 
	C1200.921021,613.618591 1206.072632,623.111572 1205.916382,635.755798 
	C1205.749634,649.248962 1205.869995,662.745728 1205.889526,676.240967 
	C1205.891968,677.992920 1206.039917,679.744568 1206.118042,681.440979 
	C1213.589600,681.440979 1220.493652,681.440979 1227.795044,681.440979 
	C1227.795044,666.958618 1227.908569,652.825012 1227.736450,638.694946 
	C1227.671997,633.396790 1227.548828,627.973511 1226.419312,622.834351 
	C1218.901001,588.626648 1182.150635,572.249023 1151.509766,589.259033 
	C1150.523193,589.806702 1149.512451,590.310974 1148.434692,590.876526 
	C1148.010132,589.203796 1147.659912,587.823730 1147.339966,586.562805 
	C1140.089722,586.562805 1133.181152,586.562805 1126.416016,586.562805 
	C1126.416016,618.464905 1126.416016,650.007568 1126.416016,681.483521 
	C1133.764648,681.483521 1140.689331,681.483521 1148.003784,681.483521 
	C1148.003784,665.711121 1148.000732,650.246765 1148.004395,634.782410 
	C1148.009888,611.868835 1168.160278,598.297546 1189.949585,607.305176 
M294.364685,675.905212 
	C310.153717,665.648010 317.916107,651.121155 317.764099,632.278503 
	C317.659302,619.290100 317.743988,606.300171 317.743988,593.310913 
	C317.743988,591.027710 317.743988,588.744446 317.743988,586.272949 
	C309.779144,586.272949 302.387177,586.272949 294.564087,586.272949 
	C294.564087,588.351929 294.574921,590.156982 294.562408,591.961975 
	C294.462219,606.444702 294.557007,620.932434 294.195740,635.408691 
	C293.863220,648.732422 283.054626,659.461121 270.002045,659.987915 
	C255.955215,660.554871 244.295746,651.204346 242.899506,637.491638 
	C242.161819,630.246704 242.660187,622.873718 242.641937,615.558411 
	C242.618362,606.106628 242.636215,596.654785 242.636215,586.936646 
	C234.702469,586.936646 227.154739,586.936646 218.995651,586.936646 
	C218.995651,602.439636 218.977966,617.572815 218.999100,632.705933 
	C219.054123,672.113403 259.380371,695.609924 294.364685,675.905212 
M886.364380,151.966553 
	C882.366333,151.944107 878.367920,151.871490 874.370361,151.907013 
	C836.644470,152.242233 802.512695,182.748505 797.544922,220.931122 
	C823.224792,225.586792 848.393982,226.086487 870.826294,210.133835 
	C889.730103,196.690430 899.216125,176.958130 905.800720,154.446060 
	C899.074341,153.552902 893.198669,152.772705 886.364380,151.966553 
M559.285767,223.241226 
	C570.961304,224.537430 582.421082,223.166946 594.560730,220.637466 
	C587.027283,196.372482 576.535034,174.560425 553.844177,161.599838 
	C532.507812,149.412857 509.488342,150.152863 485.032623,154.779312 
	C488.584259,163.428116 491.317932,171.435226 495.055573,178.942505 
	C508.081146,205.105331 528.378845,221.163712 559.285767,223.241226 
M855.860840,238.358200 
	C846.135925,246.266037 838.195984,255.661026 831.493103,266.797516 
	C853.712769,279.348969 876.220642,288.020813 901.418274,280.332336 
	C923.198120,273.686676 937.620361,257.812317 950.061279,238.519852 
	C943.244629,235.206787 937.310852,231.853348 931.036560,229.355072 
	C904.692810,218.865509 879.444153,219.005936 855.860840,238.358200 
M474.975891,273.567657 
	C502.021484,291.270660 537.598267,281.499054 559.386963,266.353638 
	C530.332825,218.085205 486.530762,210.409744 441.933502,239.268997 
	C450.374268,252.865601 460.836212,264.457520 474.975891,273.567657 
M220.652603,559.843628 
	C220.341431,559.544739 220.032211,558.987000 219.718796,558.984680 
	C211.398178,558.921997 203.073074,558.782593 194.760056,559.032410 
	C193.367264,559.074219 191.564362,560.550720 190.731094,561.860657 
	C178.861786,580.519470 167.072983,599.230530 155.467285,618.053894 
	C154.589569,619.477356 154.459778,622.329102 155.305359,623.702148 
	C166.989319,642.674011 178.892700,661.510986 190.798065,680.345764 
	C191.449295,681.376038 192.574768,682.828552 193.505493,682.848083 
	C202.509964,683.037292 211.519989,682.961670 221.295517,682.961670 
	C208.652817,663.319458 196.746307,644.498962 184.431717,625.949402 
	C181.844757,622.052673 182.186584,619.543213 184.597504,615.875183 
	C196.653305,597.533447 208.416428,578.999390 220.652603,559.843628 
M518.949219,304.498779 
	C509.802673,317.910706 505.881287,332.898651 504.967041,348.837524 
	C544.049683,357.615509 586.202454,319.705475 581.357971,279.926331 
	C557.652283,280.133118 535.292175,283.419830 518.949219,304.498779 
M867.742065,298.758148 
	C855.607666,286.424591 840.215393,281.739777 823.582764,280.487946 
	C807.496887,279.277222 808.339539,278.026001 811.057251,293.467712 
	C815.699646,319.845337 828.681458,339.561188 856.288513,346.544800 
	C865.967590,348.993286 875.770691,350.224884 886.344727,349.268463 
	C885.374084,330.364624 880.525085,313.500946 867.742065,298.758148 
M363.489685,604.999451 
	C366.247955,604.999451 369.006195,604.999451 371.590576,604.999451 
	C371.590576,598.233826 371.590576,592.183655 371.590576,585.791260 
	C365.581696,585.791260 359.979004,585.791260 353.860229,585.791260 
	C353.860229,576.385254 353.860229,567.328796 353.860229,558.389404 
	C345.938904,558.389404 338.555756,558.389404 331.401123,558.389404 
	C331.401123,599.799072 331.401123,640.819031 331.401123,681.722656 
	C339.067596,681.722656 346.330536,681.722656 354.100250,681.722656 
	C354.100250,656.081726 354.100250,630.712158 354.100250,604.999451 
	C357.243561,604.999451 359.878052,604.999451 363.489685,604.999451 
M152.999191,638.500000 
	C152.999191,611.760681 152.999191,585.021362 152.999191,558.396362 
	C144.596115,558.396362 136.876907,558.396362 129.252899,558.396362 
	C129.252899,600.041565 129.252899,641.290588 129.252899,682.690674 
	C137.223618,682.690674 144.939148,682.690674 152.999191,682.690674 
	C152.999191,668.089722 152.999191,653.794861 152.999191,638.500000 
M830.317139,645.501709 
	C830.318054,640.504150 830.169861,635.501160 830.350525,630.510071 
	C830.747925,619.524170 835.476562,610.819031 845.274109,605.685852 
	C849.693176,603.370483 854.889221,602.538086 859.967163,600.960022 
	C859.967163,593.769226 859.967163,586.051208 859.967163,578.221985 
	C857.649597,578.221985 855.657410,578.023254 853.715637,578.252014 
	C827.051941,581.393188 808.061951,602.396851 807.716064,629.300232 
	C807.536133,643.291199 807.683472,657.286316 807.683044,671.279602 
	C807.682922,674.385437 807.682983,677.491272 807.682983,680.767944 
	C815.526367,680.767944 822.752136,680.767944 830.317444,680.767944 
	C830.317444,669.114563 830.317444,657.807739 830.317139,645.501709 
M1261.999756,597.524109 
	C1261.999756,594.096558 1261.999756,590.669006 1261.999756,587.397217 
	C1254.250732,587.397217 1247.195801,587.397217 1240.256836,587.397217 
	C1240.256836,619.050659 1240.256836,650.306946 1240.256836,681.690308 
	C1247.568604,681.690308 1254.619995,681.690308 1261.999756,681.690308 
	C1261.999756,653.761230 1261.999756,626.140015 1261.999756,597.524109 
M1110.999634,677.351868 
	C1110.999634,647.288330 1110.999634,617.224792 1110.999634,587.269531 
	C1103.610229,587.269531 1097.007568,587.269531 1090.310547,587.269531 
	C1090.310547,618.916260 1090.310547,650.293152 1090.310547,681.996948 
	C1096.420166,681.996948 1102.229370,681.844421 1108.025146,682.058594 
	C1111.121948,682.172974 1111.152222,680.464539 1110.999634,677.351868 
M937.560852,311.989166 
	C925.264648,292.555695 901.142151,290.474945 884.013672,296.767059 
	C892.040466,329.388947 916.805664,341.168854 947.192444,331.821442 
	C944.066467,325.310364 941.013977,318.952484 937.560852,311.989166 
M463.830536,301.283508 
	C453.819489,309.307159 448.308594,320.019775 444.923645,332.099548 
	C473.908417,342.507446 501.567596,326.611359 507.512665,296.508270 
	C494.847443,291.344513 476.076233,293.253448 463.830536,301.283508 
M774.000122,270.403442 
	C775.037598,271.477631 776.011047,272.623657 777.122864,273.614380 
	C784.252930,279.967560 795.270569,280.865845 803.550781,275.810425 
	C811.855042,270.740326 816.081604,260.591736 813.523987,251.258957 
	C810.958008,241.895889 804.851685,236.014145 795.198975,234.538757 
	C786.248352,233.170715 778.649536,236.240021 773.506958,243.726501 
	C767.651550,252.250656 767.889648,261.130463 774.000122,270.403442 
M588.919678,240.356216 
	C587.986206,241.307465 586.988586,242.204422 586.129578,243.218735 
	C580.513306,249.850266 579.593445,260.284760 583.902466,268.069672 
	C588.312195,276.036530 597.506531,280.821198 606.033203,279.586334 
	C616.051636,278.135406 623.321289,271.623138 625.550415,262.102692 
	C627.611572,253.299698 623.701843,243.669510 616.001587,238.582855 
	C607.831604,233.185928 598.062134,233.660110 588.919678,240.356216 
M570.151611,369.443604 
	C571.570435,362.248962 571.724182,355.099030 569.908447,347.944305 
	C545.980347,352.258026 532.354553,369.946259 539.445862,394.893372 
	C553.178711,393.158051 567.022217,383.749481 570.151611,369.443604 
M1259.272095,556.003845 
	C1252.998047,556.003845 1246.723999,556.003845 1240.301270,556.003845 
	C1240.301270,562.884033 1240.301270,569.261597 1240.301270,575.651123 
	C1247.651611,575.651123 1254.696289,575.651123 1261.989502,575.651123 
	C1261.989502,569.667236 1262.059204,564.027832 1261.911011,558.394165 
	C1261.889893,557.589478 1260.813232,556.812622 1259.272095,556.003845 
M1101.480835,556.000549 
	C1097.731323,556.000549 1093.981934,556.000549 1090.404541,556.000549 
	C1090.404541,563.102905 1090.404541,569.483032 1090.404541,575.726501 
	C1097.404175,575.726501 1103.996460,575.726501 1110.680664,575.726501 
	C1110.680664,569.074158 1110.680664,562.697876 1110.680664,556.000549 
	C1107.730347,556.000549 1105.095825,556.000549 1101.480835,556.000549 
M675.110352,723.551453 
	C672.643616,729.890442 670.176941,736.229431 667.536621,743.014404 
	C664.255310,734.409851 661.190430,726.215454 657.963623,718.085327 
	C657.492981,716.899597 656.249207,716.020813 655.363159,715.000000 
	C654.781799,716.169373 653.791504,717.302551 653.684387,718.513916 
	C652.893372,727.458313 652.263916,736.417175 651.636597,745.375305 
	C651.588196,746.067322 651.944153,746.787781 652.112122,747.494995 
	C652.717346,747.526978 653.322632,747.559021 653.927917,747.591003 
	C654.591248,739.224060 655.254578,730.857178 655.917969,722.490234 
	C656.213074,722.457458 656.508179,722.424683 656.803284,722.391907 
	C660.083008,730.861511 663.362732,739.331055 666.642395,747.800598 
	C667.170898,747.773010 667.699402,747.745422 668.227905,747.717773 
	C671.657043,739.190857 675.086182,730.664001 678.515320,722.137085 
	C678.857056,722.222778 679.198792,722.308533 679.540527,722.394287 
	C680.140198,730.779541 680.739929,739.164734 681.339661,747.549988 
	C682.158081,747.484192 682.976501,747.418457 683.794922,747.352722 
	C683.110229,736.682983 682.425476,726.013306 681.713440,714.918762 
	C676.221130,715.358276 677.414917,720.359985 675.110352,723.551453 
M757.221313,722.217590 
	C755.289673,719.644409 753.358032,717.071228 751.426392,714.497986 
	C751.156494,714.770813 750.886658,715.043640 750.616760,715.316467 
	C750.616760,725.991333 750.616760,736.666138 750.616760,747.340942 
	C751.040955,747.351990 751.465088,747.363037 751.889282,747.374023 
	C751.889282,738.446655 751.889282,729.519287 751.889282,719.080261 
	C758.991699,729.580017 765.247864,738.828796 772.156311,749.041870 
	C774.470154,741.025757 773.857971,717.452881 771.233765,714.460083 
	C771.233765,723.891357 771.233765,732.652039 771.233765,741.412781 
	C770.910583,741.486755 770.587463,741.560730 770.264282,741.634766 
	C766.062744,735.355164 761.861206,729.075562 757.221313,722.217590 
M249.661057,739.361755 
	C249.748795,742.098633 249.836548,744.835510 249.924286,747.572388 
	C253.544571,743.822571 253.228073,717.473328 249.841034,714.067932 
	C249.841034,719.527283 249.841034,724.120605 249.841034,728.745789 
	C243.320282,728.745789 237.773636,728.745789 231.886444,728.745789 
	C231.886444,726.077393 231.950775,723.771729 231.867798,721.471375 
	C231.789764,719.307983 231.556259,717.150146 231.391159,714.989929 
	C228.192978,720.099487 228.704056,745.130920 231.717987,748.257446 
	C231.717987,742.279480 231.717987,737.161377 231.717987,732.060913 
	C238.151367,732.060913 243.703186,732.060913 249.661926,732.060913 
	C249.661926,734.453491 249.661926,736.428711 249.661057,739.361755 
M822.270203,747.885559 
	C824.792480,746.791687 829.084534,746.140625 829.490662,744.517273 
	C830.529114,740.366882 829.836975,735.783569 829.836975,731.715942 
	C825.855591,731.715942 822.723816,731.715942 819.592102,731.715942 
	C819.556335,732.188660 819.520569,732.661377 819.484802,733.134094 
	C821.878418,733.423157 824.272034,733.712219 826.950256,734.035706 
	C826.950256,735.999512 826.950256,737.643250 826.950256,739.286926 
	C826.950256,741.058289 826.950256,742.829590 826.950256,744.416748 
	C816.491333,747.426758 808.884338,743.949707 806.873108,735.694763 
	C803.984192,723.838013 812.044922,715.241455 824.242737,717.153381 
	C825.612793,717.368164 827.000122,717.472595 828.379456,717.628113 
	C827.924500,716.077454 827.292969,715.452454 826.568481,715.314026 
	C819.375488,713.939514 812.450867,714.267883 807.353210,720.345093 
	C802.489563,726.143494 802.195129,732.941711 805.219604,739.571655 
	C808.296631,746.317078 814.360901,748.288879 822.270203,747.885559 
M1004.933472,747.975586 
	C1020.059265,749.697876 1025.113403,734.555054 1020.802673,723.174683 
	C1018.401550,716.835876 1012.256165,713.622131 1005.520752,714.644714 
	C998.499084,715.710815 993.523315,721.252380 992.899597,728.700806 
	C992.031494,739.068237 995.356628,744.747803 1004.933472,747.975586 
M953.877625,732.994141 
	C958.017029,733.690552 959.413452,736.619080 960.214233,740.321716 
	C960.774292,742.910828 961.901428,745.377258 962.775208,747.898499 
	C963.480835,747.640991 964.186462,747.383423 964.892090,747.125916 
	C963.210449,741.940918 961.528870,736.755859 959.724304,731.191833 
	C964.001953,727.129272 965.184937,722.939270 962.713501,718.863098 
	C960.144775,714.626587 952.375061,713.339966 945.445923,716.003662 
	C944.179688,728.235229 944.852356,745.052795 947.636597,748.581848 
	C947.636597,742.688782 947.636597,737.924622 947.636597,732.906494 
	C950.055603,732.906494 951.540039,732.906494 953.877625,732.994141 
M612.723572,733.121826 
	C617.575623,734.492249 617.607422,738.893250 618.755066,742.626892 
	C619.302002,744.406250 620.070374,746.117554 620.738464,747.859680 
	C621.418762,747.596802 622.099060,747.333923 622.779358,747.071045 
	C621.083740,741.902100 619.388123,736.733154 617.502075,730.983521 
	C617.198853,731.231812 617.672729,730.835388 618.155334,730.449951 
	C621.337097,727.908875 622.601440,724.689819 621.343811,720.742432 
	C620.054260,716.694824 616.891174,715.151245 612.924072,714.935120 
	C611.099426,714.835632 609.257874,715.014282 607.436890,714.885254 
	C604.063049,714.646301 602.767212,715.898682 602.879211,719.476562 
	C603.134338,727.625427 602.937561,735.787842 602.984314,743.944458 
	C602.991028,745.121887 603.328735,746.297424 603.513184,747.473877 
	C604.131104,747.496460 604.749023,747.519104 605.366882,747.541748 
	C605.641907,742.763916 605.916870,737.986084 606.204834,732.983521 
	C608.268372,732.983521 610.069641,732.983521 612.723572,733.121826 
M394.240387,742.976624 
	C391.197845,734.737793 388.201752,726.481201 385.062195,718.279480 
	C384.596344,717.062500 383.453857,716.104553 382.624390,715.026733 
	C381.794556,716.137268 380.666168,717.132324 380.184540,718.377563 
	C377.555389,725.174866 375.064911,732.026367 372.570679,738.875183 
	C371.590302,741.567139 370.723969,744.300598 369.805664,747.015198 
	C370.273163,747.230530 370.740662,747.445923 371.208160,747.661255 
	C371.919983,746.448792 372.803101,745.304321 373.315674,744.012756 
	C376.460754,736.087769 376.440399,736.311523 384.704620,736.046204 
	C388.292267,735.931030 389.710083,737.329834 390.628967,740.438171 
	C391.388245,743.006592 392.661957,745.423035 393.707703,747.906799 
	C394.267944,747.677856 394.828186,747.448914 395.388397,747.219971 
	C395.097992,746.030579 394.807556,744.841248 394.240387,742.976624 
M557.529480,719.944580 
	C554.225098,728.951538 550.920654,737.958496 547.616272,746.965454 
	C548.263550,747.230408 548.910767,747.495361 549.558044,747.760315 
	C551.151978,743.989624 552.745972,740.218872 554.463745,736.155151 
	C555.895081,736.155151 557.414856,736.376282 558.847412,736.116638 
	C564.889526,735.021606 568.563843,737.093140 569.697266,743.410950 
	C569.976501,744.967468 571.308655,746.335083 572.156799,747.789490 
	C572.572510,747.573242 572.988281,747.356995 573.404053,747.140747 
	C573.066040,745.930420 572.807373,744.691101 572.377136,743.514587 
	C569.417053,735.419067 566.476562,727.315369 563.387817,719.268799 
	C562.797119,717.729858 561.576416,716.432739 560.646301,715.024109 
	C559.696472,716.422791 558.746643,717.821472 557.529480,719.944580 
M137.886597,747.528137 
	C142.102951,747.528137 146.319290,747.528137 150.535645,747.528137 
	C150.515137,746.852600 150.494629,746.177063 150.474106,745.501526 
	C145.783340,745.501526 141.092575,745.501526 136.284988,745.501526 
	C136.284988,740.532654 136.284988,736.275513 136.284988,731.799377 
	C140.680679,731.587708 144.830399,731.387878 148.980103,731.188049 
	C149.002701,730.649109 149.025299,730.110168 149.047913,729.571289 
	C144.796478,729.340027 140.545044,729.108765 136.429001,728.884888 
	C136.429001,724.759827 136.429001,721.052734 136.429001,717.374878 
	C141.192780,717.156250 145.545837,716.956482 149.898911,716.756714 
	C149.860657,716.275818 149.822418,715.794922 149.784164,715.314026 
	C144.547180,715.314026 139.310181,715.314026 133.499420,715.314026 
	C133.499420,725.270203 133.418411,735.223450 133.650543,745.169312 
	C133.669479,745.980530 135.826630,746.741821 137.886597,747.528137 
M1142.590332,725.647400 
	C1146.374634,715.666260 1154.697998,716.281738 1163.872559,717.702148 
	C1158.429321,712.550903 1147.752808,714.155945 1142.803711,719.935486 
	C1136.995972,726.717712 1137.638184,738.884705 1144.096924,744.440491 
	C1149.464233,749.057312 1159.778931,749.512512 1163.463867,744.776428 
	C1161.112793,745.121948 1159.216919,745.490845 1157.303345,745.666260 
	C1148.661011,746.458801 1142.626587,741.883118 1141.939209,733.838989 
	C1141.730347,731.395752 1142.157959,728.898071 1142.590332,725.647400 
M896.928589,715.313904 
	C896.618958,715.865601 896.042908,716.415710 896.039429,716.969360 
	C895.978943,726.590271 895.968140,736.211792 896.033081,745.832642 
	C896.037109,746.431335 896.755371,747.025269 897.141357,747.621460 
	C897.582092,747.596069 898.022827,747.570740 898.463562,747.545410 
	C898.683655,743.160034 898.903809,738.774597 899.120728,734.452454 
	C902.068848,734.113281 904.742859,734.104431 907.250793,733.454712 
	C912.427246,732.113770 915.269104,728.033264 914.786011,723.222290 
	C914.289185,718.275391 910.918457,715.247009 905.279297,714.931274 
	C902.805542,714.792725 900.311279,715.018677 896.928589,715.313904 
M331.794708,748.024841 
	C335.355896,748.025879 339.001251,748.311829 342.951202,745.099915 
	C326.355286,745.382874 321.431671,743.403687 320.440460,734.961670 
	C318.553192,718.888000 328.065887,715.060791 342.255280,716.817444 
	C335.686920,713.685669 329.623047,713.594849 324.086334,717.522644 
	C317.818695,721.968994 316.366821,728.407593 317.751160,735.673462 
	C319.142670,742.976807 323.743134,746.867126 331.794708,748.024841 
M1247.751221,745.820374 
	C1245.594238,745.300842 1243.437378,744.781372 1241.280396,744.261841 
	C1241.164551,744.761658 1241.048706,745.261536 1240.932861,745.761353 
	C1244.392334,748.303406 1248.719116,749.116333 1252.668701,747.355103 
	C1255.291016,746.185791 1257.809570,743.241577 1258.873047,740.507690 
	C1260.216797,737.053772 1258.546631,733.620544 1255.084106,731.641296 
	C1253.216919,730.573975 1251.195679,729.778748 1249.263062,728.822327 
	C1246.125977,727.269897 1243.214844,725.317322 1244.343872,721.247864 
	C1245.513062,717.032959 1249.051025,716.562134 1252.785522,716.946228 
	C1254.371704,717.109436 1255.947388,717.373779 1257.527832,717.592163 
	C1254.093506,713.725342 1249.842285,713.565674 1246.349854,715.760376 
	C1244.073242,717.190918 1242.065186,720.474915 1241.689941,723.172546 
	C1241.119995,727.270447 1244.535400,729.564026 1248.038940,731.153198 
	C1248.794922,731.496094 1249.581787,731.771545 1250.355591,732.074890 
	C1253.980957,733.496582 1257.084717,735.517944 1256.521118,739.987488 
	C1255.952759,744.494263 1252.574341,745.741089 1247.751221,745.820374 
M1096.136230,736.588440 
	C1096.227417,735.013855 1096.318604,733.439270 1096.455688,731.072998 
	C1101.094482,731.072998 1105.187500,731.072998 1109.280518,731.072998 
	C1109.278564,730.498474 1109.276733,729.923950 1109.274902,729.349426 
	C1105.016968,729.349426 1100.759033,729.349426 1096.596924,729.349426 
	C1096.596924,724.753601 1096.596924,721.062683 1096.596924,716.695679 
	C1101.336304,716.695679 1105.615234,716.695679 1109.894165,716.695679 
	C1109.881348,716.295349 1109.868530,715.895020 1109.855835,715.494690 
	C1104.633789,715.494690 1099.411865,715.494690 1094.062622,715.494690 
	C1094.062622,726.083069 1094.062622,736.511047 1094.062622,746.892090 
	C1099.772339,746.892090 1105.266235,746.892090 1110.760132,746.892090 
	C1110.757324,746.451904 1110.754395,746.011719 1110.751465,745.571533 
	C1106.066650,745.571533 1101.381958,745.571533 1096.136108,745.571533 
	C1096.136108,742.444885 1096.136108,739.995422 1096.136230,736.588440 
M194.335190,714.936340 
	C188.733063,714.936340 183.130920,714.936340 177.528793,714.936340 
	C177.526062,715.601868 177.523346,716.267395 177.520630,716.932922 
	C180.856354,717.172668 184.192078,717.412354 188.473663,717.720032 
	C188.473663,727.694519 188.473663,737.601929 188.473663,747.509399 
	C189.125504,747.515686 189.777359,747.522034 190.429199,747.528381 
	C190.429199,737.654541 190.429199,727.780762 190.429199,717.789490 
	C194.749451,717.416138 198.095245,717.126953 201.441040,716.837769 
	C201.414429,716.203979 201.387802,715.570129 201.361191,714.936279 
	C199.332550,714.936279 197.303925,714.936279 194.335190,714.936340 
M510.669769,715.001160 
	C508.491760,714.830322 506.880188,714.936768 506.940643,717.998718 
	C507.124756,727.325378 507.013947,736.657776 507.074860,745.987549 
	C507.078094,746.479614 507.605988,746.968262 507.889618,747.458496 
	C508.287842,747.428162 508.686096,747.397766 509.084320,747.367432 
	C509.084320,742.418030 509.084320,737.468628 509.084320,732.349121 
	C513.951111,732.055847 517.954163,731.814636 521.957214,731.573425 
	C521.919678,731.034729 521.882080,730.496094 521.844482,729.957397 
	C517.944519,729.957397 514.044556,729.957397 509.823120,729.957397 
	C509.823120,725.474548 509.823120,721.584473 509.823120,716.789551 
	C514.447754,716.789551 518.840881,716.789551 523.234009,716.789551 
	C523.220947,716.193237 523.207825,715.596985 523.194763,715.000671 
	C519.337891,715.000671 515.481018,715.000671 510.669769,715.001160 
M425.087189,733.494446 
	C425.087189,738.074097 425.087189,742.653748 425.087189,747.011841 
	C431.372955,747.011841 436.906860,747.011841 442.440796,747.011841 
	C442.434723,746.528259 442.428619,746.044617 442.422546,745.561035 
	C437.781952,745.561035 433.141327,745.561035 428.028320,745.561035 
	C427.667755,734.898743 428.239197,724.912659 427.694244,715.012024 
	C426.825256,715.025269 425.956268,715.038452 425.087280,715.051697 
	C425.087280,720.866760 425.087280,726.681885 425.087189,733.494446 
M287.999207,743.304993 
	C287.999207,734.008118 287.999207,724.711243 287.999207,713.708740 
	C285.941895,715.395508 284.154816,716.170227 284.139923,716.977722 
	C283.950287,727.255005 284.014954,737.537109 284.014954,747.582458 
	C288.061340,748.809143 288.158661,746.651184 287.999207,743.304993 
M1061.912720,720.684814 
	C1061.715698,718.769836 1061.518677,716.854858 1061.321777,714.939819 
	C1060.742676,714.948059 1060.163574,714.956238 1059.584473,714.964478 
	C1059.418701,716.433167 1059.126953,717.900391 1059.110229,719.370789 
	C1059.051392,724.525879 1059.093628,729.682129 1059.085938,734.837891 
	C1059.071533,744.489136 1058.593384,745.018616 1049.425659,745.742065 
	C1049.265503,745.754761 1049.145630,746.277954 1049.013184,746.566040 
	C1055.163696,750.400757 1061.476685,746.849976 1061.848145,739.101929 
	C1062.126587,733.294128 1061.909302,727.462524 1061.912720,720.684814 
M1204.115723,734.488647 
	C1204.115723,728.761475 1204.115723,723.034363 1204.115723,717.385925 
	C1208.276123,717.139038 1211.566650,716.943726 1214.857178,716.748413 
	C1214.823364,716.375366 1214.789551,716.002319 1214.755615,715.629272 
	C1206.910522,715.629272 1199.065308,715.629272 1191.220093,715.629272 
	C1191.208252,716.108887 1191.196289,716.588501 1191.184326,717.068115 
	C1194.652344,717.068115 1198.120239,717.068115 1202.345825,717.068115 
	C1202.345825,727.575195 1202.345825,737.280823 1202.345825,746.986511 
	C1202.935791,746.987915 1203.525879,746.989380 1204.115845,746.990845 
	C1204.115845,743.153931 1204.115845,739.316956 1204.115723,734.488647 
M717.985657,716.895935 
	C717.420715,716.294922 716.855774,715.693909 716.290771,715.092957 
	C715.861389,716.001648 715.068420,716.906555 715.058777,717.819641 
	C714.965027,726.760437 714.942322,735.703491 715.078308,744.643188 
	C715.094971,745.738220 716.161011,746.817383 716.740723,747.903931 
	C717.159973,746.820862 717.930969,745.741577 717.942932,744.653992 
	C718.040955,735.713318 717.997803,726.770996 717.985657,716.895935 
z"/>
<path fill="#A8A436" opacity="1.000000" stroke="none" 
	d="
M773.047974,334.176300 
	C765.460754,314.445129 752.010010,299.410461 736.922607,285.953827 
	C725.778015,276.013855 713.455444,267.382355 701.486267,258.396149 
	C700.154236,257.396118 697.130005,257.002808 695.849609,257.823822 
	C668.966431,275.061584 644.903564,295.310913 627.867920,322.863983 
	C622.178772,332.065521 619.594299,341.928925 620.666260,352.851135 
	C625.136108,398.393250 629.437622,443.951904 633.791199,489.505402 
	C633.946899,491.134247 633.999817,492.772919 634.119446,494.713379 
	C568.178040,494.713379 502.537109,494.713379 436.896179,494.713379 
	C436.851624,494.475861 436.807098,494.238342 436.762573,494.000854 
	C444.693451,492.657928 452.617706,491.274475 460.556335,489.979065 
	C497.824921,483.897522 535.093750,477.817200 572.375854,471.819397 
	C575.257812,471.355774 576.084229,469.922699 576.351074,467.214172 
	C579.679260,433.438232 583.521362,399.706451 586.317749,365.887756 
	C587.493469,351.669312 586.504944,337.272705 586.524780,322.957092 
	C586.527771,320.794556 586.770691,318.629791 586.721741,316.470154 
	C586.495117,306.468048 591.988220,301.400665 600.865967,297.800995 
	C617.794312,290.937073 634.724121,283.884186 650.960754,275.558838 
	C668.651001,266.488190 684.778931,254.900436 697.763855,238.799057 
	C699.763245,240.943466 701.683655,243.119400 703.725220,245.174973 
	C724.550232,266.143097 750.140015,279.494446 776.975159,290.802338 
	C783.099487,293.383026 789.330750,295.772827 795.659607,297.789886 
	C804.497925,300.606750 808.646851,306.593414 808.752991,315.624268 
	C808.835205,322.615356 808.972961,329.614838 808.740845,336.599091 
	C807.597351,371.010040 811.619385,405.073486 815.495422,439.146698 
	C816.586304,448.735962 817.972229,458.291473 819.087891,467.878174 
	C819.456909,471.049500 820.453918,472.662842 824.094604,473.243195 
	C864.510010,479.685760 904.888367,486.360992 945.270752,493.009308 
	C946.972778,493.289551 948.616882,493.921783 949.930908,494.290009 
	C887.333130,494.290009 824.488098,494.290009 761.060608,494.290009 
	C762.233459,484.188934 763.535767,474.703339 764.405701,465.178253 
	C767.993225,425.902527 771.537048,386.622131 774.825745,347.320801 
	C775.175110,343.145203 773.748169,338.820923 773.047974,334.176300 
z"/>
<path fill="#FECD0A" opacity="1.000000" stroke="none" 
	d="
M728.488525,167.484161 
	C720.978149,186.850784 709.930420,203.472504 694.989685,219.628357 
	C693.374573,217.384369 692.197632,215.384415 690.677002,213.693573 
	C677.079773,198.574173 666.071655,181.847687 659.106140,162.654205 
	C648.556580,133.585007 652.428833,105.625092 666.748291,78.951561 
	C672.148315,68.892761 679.149658,59.680038 685.619080,50.217030 
	C687.652832,47.242207 690.332214,44.708797 692.720093,41.968784 
	C722.890808,70.812218 748.291260,118.280083 728.488525,167.484161 
z"/>
<path fill="#6E6F68" opacity="1.000000" stroke="none" 
	d="
M940.516479,582.785889 
	C940.516846,574.012817 940.516846,565.714783 940.516846,557.212036 
	C947.468567,557.212036 953.907471,557.212036 961.119202,557.212036 
	C961.119202,562.707581 961.119202,568.137878 961.119202,573.568115 
	C961.119202,592.729614 961.151733,611.891174 961.111389,631.052612 
	C961.051514,659.471985 939.528992,681.842285 910.758484,683.450562 
	C883.484131,684.975220 859.779480,664.422974 856.297607,636.232483 
	C853.052734,609.960754 871.984314,584.360901 898.671143,579.273682 
	C911.567017,576.815369 923.830933,578.963562 935.238525,585.591614 
	C936.530823,586.342407 937.813416,587.109802 939.112061,587.849243 
	C939.225769,587.914001 939.426025,587.826782 940.181824,587.748352 
	C940.286377,586.345215 940.401245,584.803101 940.516479,582.785889 
M939.458252,625.347168 
	C934.782898,606.874634 917.896057,596.379089 900.509338,601.139343 
	C884.162842,605.614929 874.366211,622.110413 878.156555,638.776550 
	C881.806213,654.824158 898.241211,665.322510 914.707336,662.124512 
	C931.291138,658.903687 941.320312,644.465332 939.458252,625.347168 
z"/>
<path fill="#A7A335" opacity="1.000000" stroke="none" 
	d="
M571.111023,108.314728 
	C572.913696,100.440361 574.626526,92.999535 576.424133,85.579269 
	C576.769958,84.151802 577.448914,82.805023 578.221558,80.769234 
	C603.007019,91.631401 624.888245,105.771164 636.766846,130.853378 
	C649.291748,157.300262 645.268677,184.245560 636.468567,212.201080 
	C629.116089,208.312256 622.218384,205.125931 615.788269,201.178116 
	C594.863892,188.331451 578.536987,171.665375 572.439758,146.922379 
	C569.330627,134.305115 569.479370,121.551926 571.111023,108.314728 
z"/>
<path fill="#A7A335" opacity="1.000000" stroke="none" 
	d="
M795.857788,185.863312 
	C783.926270,197.026367 770.570984,205.261932 754.973633,211.648346 
	C746.813599,187.757950 743.089172,163.868301 751.110107,139.712555 
	C761.148499,109.480995 785.316101,93.467308 812.630493,80.861595 
	C824.545227,108.780640 828.873474,155.962814 795.857788,185.863312 
z"/>
<path fill="#6E6F68" opacity="1.000000" stroke="none" 
	d="
M711.208618,626.204773 
	C718.869873,604.884766 726.479370,583.960815 733.861328,562.956909 
	C735.035767,559.615295 736.545654,558.152771 740.200256,558.437988 
	C744.503906,558.773926 748.860962,558.667664 753.181213,558.463928 
	C756.068542,558.327698 757.612183,559.155579 758.659302,562.085938 
	C772.578247,601.038025 786.634644,639.941040 800.642456,678.861450 
	C800.854248,679.449707 800.885376,680.102905 801.131409,681.430725 
	C793.577209,681.430725 786.328308,681.539490 779.090942,681.299438 
	C778.136108,681.267822 776.826965,679.611084 776.387268,678.441772 
	C774.224915,672.690796 772.470154,666.781738 770.167786,661.091919 
	C769.620728,659.739807 767.536255,658.160522 766.133667,658.136169 
	C753.147949,657.910461 740.156250,658.060425 727.167542,657.952881 
	C724.631531,657.931885 723.327759,658.590942 722.553345,661.198242 
	C720.852234,666.925537 718.881165,672.585999 716.696960,678.146790 
	C716.163330,679.505188 714.422058,681.263916 713.168396,681.319702 
	C706.231812,681.628357 699.274353,681.467529 691.441833,681.467529 
	C698.156982,662.698730 704.619263,644.636536 711.208618,626.204773 
M733.618835,629.133850 
	C732.959473,631.274170 732.300110,633.414490 731.571777,635.778687 
	C741.780518,635.778687 751.376770,635.778687 761.713928,635.778687 
	C756.686951,621.047363 751.807068,606.746948 746.533936,591.294373 
	C742.033752,604.483887 737.960388,616.422302 733.618835,629.133850 
z"/>
<path fill="#6E6F68" opacity="1.000000" stroke="none" 
	d="
M1073.847900,681.116333 
	C1067.543213,681.118286 1061.725952,681.118286 1055.208130,681.118286 
	C1055.208130,679.027893 1055.208130,677.259277 1055.208130,675.490662 
	C1055.208008,661.327026 1055.243896,647.163330 1055.198364,632.999878 
	C1055.146118,616.751831 1042.516235,603.871033 1026.642334,603.793823 
	C1010.762939,603.716675 997.776917,616.373169 997.529602,632.548889 
	C997.313049,646.709229 997.483459,660.875427 997.482971,675.039062 
	C997.482910,676.847107 997.483032,678.655212 997.483032,680.789307 
	C990.167786,680.789307 983.257202,680.789307 975.929077,680.789307 
	C975.929077,639.972961 975.929077,599.110352 975.929077,557.881653 
	C982.832336,557.881653 989.742859,557.881653 997.428040,557.881653 
	C997.428040,568.486389 997.428040,579.161865 997.428040,589.498169 
	C1004.928406,587.094727 1011.670776,584.113770 1018.722839,582.817749 
	C1047.591919,577.512024 1075.943237,600.305603 1076.967896,629.695251 
	C1077.524902,645.672607 1077.156494,661.684814 1076.996704,677.679199 
	C1076.985229,678.833008 1075.262451,679.969666 1073.847900,681.116333 
z"/>
<path fill="#F79723" opacity="1.000000" stroke="none" 
	d="
M608.846680,583.793335 
	C644.627991,566.571960 684.116150,590.378113 685.167725,629.686707 
	C685.611877,646.289490 685.241760,662.914001 685.241760,679.892700 
	C678.471863,679.892700 672.074036,679.892700 665.199219,679.892700 
	C665.029236,677.793884 664.850342,675.584839 664.630920,672.875305 
	C663.206116,673.638794 662.062805,674.167847 661.003784,674.831299 
	C629.615173,694.493774 589.012939,677.276367 581.336731,641.038574 
	C576.541260,618.400085 587.157349,596.089294 608.846680,583.793335 
M645.864197,601.446838 
	C644.457886,600.946472 643.071716,600.378052 641.642212,599.956177 
	C628.338379,596.030518 613.683472,601.518799 606.382812,613.135742 
	C598.868591,625.092529 599.997009,640.163574 609.189209,650.615051 
	C618.602966,661.318420 633.738831,664.498840 646.407898,658.214233 
	C657.671692,652.626770 663.722473,643.377441 664.043274,630.826477 
	C664.381775,617.580688 658.108093,608.024719 645.864197,601.446838 
z"/>
<path fill="#F79622" opacity="1.000000" stroke="none" 
	d="
M693.898682,409.999542 
	C693.898621,366.193115 693.896667,322.886566 693.906250,279.579987 
	C693.906616,277.918152 693.415710,275.829010 694.219971,274.695618 
	C695.398254,273.035187 697.563965,271.043549 699.266418,271.081879 
	C700.915588,271.118958 702.920105,273.288025 703.991394,275.005524 
	C704.750366,276.222229 704.252991,278.245819 704.253235,279.909241 
	C704.259827,328.212708 704.330688,376.516479 704.147705,424.819244 
	C704.129211,429.679443 705.472961,431.201813 710.265686,430.836823 
	C715.694031,430.423431 721.178040,430.741425 727.181519,430.741425 
	C728.483704,443.552826 728.838745,456.101257 731.203064,468.258972 
	C735.085632,488.223541 724.320862,500.619446 710.462036,511.367432 
	C697.214844,521.640930 701.369263,521.730652 687.951538,511.408203 
	C682.727356,507.389130 678.210449,502.360382 673.777588,497.426605 
	C668.594666,491.657959 665.967041,484.958557 666.812927,476.849976 
	C668.396301,461.670624 669.488220,446.439972 670.823975,430.769409 
	C678.673584,430.769409 685.924255,430.769409 693.898682,430.769409 
	C693.898682,423.678223 693.898682,417.088806 693.898682,409.999542 
M701.021057,478.780457 
	C701.943298,465.287048 702.865479,451.793640 703.787415,438.304626 
	C700.109741,438.304626 697.199646,438.304626 693.818787,438.304626 
	C695.612793,459.289612 697.375244,479.906616 699.137756,500.523651 
	C699.334717,500.505157 699.531616,500.486664 699.728577,500.468170 
	C700.151550,493.553558 700.574524,486.638947 701.021057,478.780457 
z"/>
<path fill="#F79723" opacity="1.000000" stroke="none" 
	d="
M393.736328,672.291626 
	C376.252319,657.970642 369.429352,639.747070 374.377472,618.250366 
	C379.282501,596.940857 393.285217,583.473389 414.727478,578.531799 
	C443.444489,571.913635 472.015778,591.085388 477.703766,620.438782 
	C483.292572,649.280334 463.485626,677.549133 434.615936,682.214661 
	C419.659973,684.631653 406.233093,681.253967 393.736328,672.291626 
M402.227783,650.248535 
	C409.198242,658.155823 417.950409,661.589111 428.455261,660.994202 
	C444.608093,660.079590 458.639923,643.541382 456.631683,627.617676 
	C454.308655,609.197632 437.822388,596.282349 420.891174,599.618591 
	C396.886841,604.348633 387.148346,629.848389 402.227783,650.248535 
z"/>
<path fill="#6F7069" opacity="1.000000" stroke="none" 
	d="
M1189.601685,607.151489 
	C1168.160278,598.297546 1148.009888,611.868835 1148.004395,634.782410 
	C1148.000732,650.246765 1148.003784,665.711121 1148.003784,681.483521 
	C1140.689331,681.483521 1133.764648,681.483521 1126.416016,681.483521 
	C1126.416016,650.007568 1126.416016,618.464905 1126.416016,586.562805 
	C1133.181152,586.562805 1140.089722,586.562805 1147.339966,586.562805 
	C1147.659912,587.823730 1148.010132,589.203796 1148.434692,590.876526 
	C1149.512451,590.310974 1150.523193,589.806702 1151.509766,589.259033 
	C1182.150635,572.249023 1218.901001,588.626648 1226.419312,622.834351 
	C1227.548828,627.973511 1227.671997,633.396790 1227.736450,638.694946 
	C1227.908569,652.825012 1227.795044,666.958618 1227.795044,681.440979 
	C1220.493652,681.440979 1213.589600,681.440979 1206.118042,681.440979 
	C1206.039917,679.744568 1205.891968,677.992920 1205.889526,676.240967 
	C1205.869995,662.745728 1205.749634,649.248962 1205.916382,635.755798 
	C1206.072632,623.111572 1200.921021,613.618591 1189.601685,607.151489 
z"/>
<path fill="#F79724" opacity="1.000000" stroke="none" 
	d="
M294.042725,676.078857 
	C259.380371,695.609924 219.054123,672.113403 218.999100,632.705933 
	C218.977966,617.572815 218.995651,602.439636 218.995651,586.936646 
	C227.154739,586.936646 234.702469,586.936646 242.636215,586.936646 
	C242.636215,596.654785 242.618362,606.106628 242.641937,615.558411 
	C242.660187,622.873718 242.161819,630.246704 242.899506,637.491638 
	C244.295746,651.204346 255.955215,660.554871 270.002045,659.987915 
	C283.054626,659.461121 293.863220,648.732422 294.195740,635.408691 
	C294.557007,620.932434 294.462219,606.444702 294.562408,591.961975 
	C294.574921,590.156982 294.564087,588.351929 294.564087,586.272949 
	C302.387177,586.272949 309.779144,586.272949 317.743988,586.272949 
	C317.743988,588.744446 317.743988,591.027710 317.743988,593.310913 
	C317.743988,606.300171 317.659302,619.290100 317.764099,632.278503 
	C317.916107,651.121155 310.153717,665.648010 294.042725,676.078857 
z"/>
<path fill="#F79622" opacity="1.000000" stroke="none" 
	d="
M886.843689,151.979523 
	C893.198669,152.772705 899.074341,153.552902 905.800720,154.446060 
	C899.216125,176.958130 889.730103,196.690430 870.826294,210.133835 
	C848.393982,226.086487 823.224792,225.586792 797.544922,220.931122 
	C802.512695,182.748505 836.644470,152.242233 874.370361,151.907013 
	C878.367920,151.871490 882.366333,151.944107 886.843689,151.979523 
z"/>
<path fill="#F79622" opacity="1.000000" stroke="none" 
	d="
M558.829834,223.215805 
	C528.378845,221.163712 508.081146,205.105331 495.055573,178.942505 
	C491.317932,171.435226 488.584259,163.428116 485.032623,154.779312 
	C509.488342,150.152863 532.507812,149.412857 553.844177,161.599838 
	C576.535034,174.560425 587.027283,196.372482 594.560730,220.637466 
	C582.421082,223.166946 570.961304,224.537430 558.829834,223.215805 
z"/>
<path fill="#A7A335" opacity="1.000000" stroke="none" 
	d="
M856.134155,238.129395 
	C879.444153,219.005936 904.692810,218.865509 931.036560,229.355072 
	C937.310852,231.853348 943.244629,235.206787 950.061279,238.519852 
	C937.620361,257.812317 923.198120,273.686676 901.418274,280.332336 
	C876.220642,288.020813 853.712769,279.348969 831.493103,266.797516 
	C838.195984,255.661026 846.135925,246.266037 856.134155,238.129395 
z"/>
<path fill="#A7A335" opacity="1.000000" stroke="none" 
	d="
M474.676819,273.359772 
	C460.836212,264.457520 450.374268,252.865601 441.933502,239.268997 
	C486.530762,210.409744 530.332825,218.085205 559.386963,266.353638 
	C537.598267,281.499054 502.021484,291.270660 474.676819,273.359772 
z"/>
<path fill="#F79723" opacity="1.000000" stroke="none" 
	d="
M220.467529,560.188293 
	C208.416428,578.999390 196.653305,597.533447 184.597504,615.875183 
	C182.186584,619.543213 181.844757,622.052673 184.431717,625.949402 
	C196.746307,644.498962 208.652817,663.319458 221.295517,682.961670 
	C211.519989,682.961670 202.509964,683.037292 193.505493,682.848083 
	C192.574768,682.828552 191.449295,681.376038 190.798065,680.345764 
	C178.892700,661.510986 166.989319,642.674011 155.305359,623.702148 
	C154.459778,622.329102 154.589569,619.477356 155.467285,618.053894 
	C167.072983,599.230530 178.861786,580.519470 190.731094,561.860657 
	C191.564362,560.550720 193.367264,559.074219 194.760056,559.032410 
	C203.073074,558.782593 211.398178,558.921997 219.718796,558.984680 
	C220.032211,558.987000 220.341431,559.544739 220.467529,560.188293 
z"/>
<path fill="#FECD0B" opacity="1.000000" stroke="none" 
	d="
M519.160095,304.208160 
	C535.292175,283.419830 557.652283,280.133118 581.357971,279.926331 
	C586.202454,319.705475 544.049683,357.615509 504.967041,348.837524 
	C505.881287,332.898651 509.802673,317.910706 519.160095,304.208160 
z"/>
<path fill="#FECD0B" opacity="1.000000" stroke="none" 
	d="
M867.989319,299.013641 
	C880.525085,313.500946 885.374084,330.364624 886.344727,349.268463 
	C875.770691,350.224884 865.967590,348.993286 856.288513,346.544800 
	C828.681458,339.561188 815.699646,319.845337 811.057251,293.467712 
	C808.339539,278.026001 807.496887,279.277222 823.582764,280.487946 
	C840.215393,281.739777 855.607666,286.424591 867.989319,299.013641 
z"/>
<path fill="#F79621" opacity="1.000000" stroke="none" 
	d="
M363.001099,604.999451 
	C359.878052,604.999451 357.243561,604.999451 354.100250,604.999451 
	C354.100250,630.712158 354.100250,656.081726 354.100250,681.722656 
	C346.330536,681.722656 339.067596,681.722656 331.401123,681.722656 
	C331.401123,640.819031 331.401123,599.799072 331.401123,558.389404 
	C338.555756,558.389404 345.938904,558.389404 353.860229,558.389404 
	C353.860229,567.328796 353.860229,576.385254 353.860229,585.791260 
	C359.979004,585.791260 365.581696,585.791260 371.590576,585.791260 
	C371.590576,592.183655 371.590576,598.233826 371.590576,604.999451 
	C369.006195,604.999451 366.247955,604.999451 363.001099,604.999451 
z"/>
<path fill="#F79621" opacity="1.000000" stroke="none" 
	d="
M152.999191,639.000000 
	C152.999191,653.794861 152.999191,668.089722 152.999191,682.690674 
	C144.939148,682.690674 137.223618,682.690674 129.252899,682.690674 
	C129.252899,641.290588 129.252899,600.041565 129.252899,558.396362 
	C136.876907,558.396362 144.596115,558.396362 152.999191,558.396362 
	C152.999191,585.021362 152.999191,611.760681 152.999191,639.000000 
z"/>
<path fill="#F79621" opacity="1.000000" stroke="none" 
	d="
M516.985168,629.950928 
	C516.985168,647.088196 516.985168,664.225525 516.985168,681.680237 
	C508.958405,681.680237 501.239502,681.680237 493.259125,681.680237 
	C493.259125,640.621887 493.259125,599.691589 493.259125,558.380676 
	C500.913147,558.380676 508.633972,558.380676 517.014648,558.380676 
	C517.014648,581.583069 517.014648,604.844421 517.000305,628.802795 
	C516.985962,629.499817 516.985168,629.950928 516.985168,629.950928 
z"/>
<path fill="#F79723" opacity="1.000000" stroke="none" 
	d="
M517.325195,630.013977 
	C516.985168,629.950928 516.985962,629.499817 516.985535,629.274292 
	C520.307922,624.957397 523.735352,620.945923 526.933655,616.759399 
	C535.932922,604.979675 544.907471,593.179443 553.721008,581.260986 
	C555.474243,578.890015 557.200989,577.741150 560.246521,577.824036 
	C568.195740,578.040527 576.154785,577.896973 585.182251,577.896973 
	C578.151917,587.018188 571.705750,595.397095 565.242432,603.762817 
	C558.731445,612.190247 552.203491,620.604614 545.328735,629.482239 
	C558.437927,646.450134 571.495239,663.350708 585.199280,681.088562 
	C575.431519,681.088562 566.681824,681.229126 557.945984,680.943787 
	C556.564514,680.898621 554.959961,679.149536 553.941711,677.818604 
	C541.796509,661.945312 529.742798,646.002014 517.325195,630.013977 
z"/>
<path fill="#6E6F68" opacity="1.000000" stroke="none" 
	d="
M830.317261,646.001343 
	C830.317444,657.807739 830.317444,669.114563 830.317444,680.767944 
	C822.752136,680.767944 815.526367,680.767944 807.682983,680.767944 
	C807.682983,677.491272 807.682922,674.385437 807.683044,671.279602 
	C807.683472,657.286316 807.536133,643.291199 807.716064,629.300232 
	C808.061951,602.396851 827.051941,581.393188 853.715637,578.252014 
	C855.657410,578.023254 857.649597,578.221985 859.967163,578.221985 
	C859.967163,586.051208 859.967163,593.769226 859.967163,600.960022 
	C854.889221,602.538086 849.693176,603.370483 845.274109,605.685852 
	C835.476562,610.819031 830.747925,619.524170 830.350525,630.510071 
	C830.169861,635.501160 830.318054,640.504150 830.317261,646.001343 
z"/>
<path fill="#6D6E67" opacity="1.000000" stroke="none" 
	d="
M1261.999756,598.021423 
	C1261.999756,626.140015 1261.999756,653.761230 1261.999756,681.690308 
	C1254.619995,681.690308 1247.568604,681.690308 1240.256836,681.690308 
	C1240.256836,650.306946 1240.256836,619.050659 1240.256836,587.397217 
	C1247.195801,587.397217 1254.250732,587.397217 1261.999756,587.397217 
	C1261.999756,590.669006 1261.999756,594.096558 1261.999756,598.021423 
z"/>
<path fill="#6D6E67" opacity="1.000000" stroke="none" 
	d="
M1110.999390,677.833008 
	C1111.152222,680.464539 1111.121948,682.172974 1108.025146,682.058594 
	C1102.229370,681.844421 1096.420166,681.996948 1090.310547,681.996948 
	C1090.310547,650.293152 1090.310547,618.916260 1090.310547,587.269531 
	C1097.007568,587.269531 1103.610229,587.269531 1110.999634,587.269531 
	C1110.999634,617.224792 1110.999634,647.288330 1110.999390,677.833008 
z"/>
<path fill="#F79723" opacity="1.000000" stroke="none" 
	d="
M937.761230,312.291870 
	C941.013977,318.952484 944.066467,325.310364 947.192444,331.821442 
	C916.805664,341.168854 892.040466,329.388947 884.013672,296.767059 
	C901.142151,290.474945 925.264648,292.555695 937.761230,312.291870 
z"/>
<path fill="#F79723" opacity="1.000000" stroke="none" 
	d="
M464.131714,301.086365 
	C476.076233,293.253448 494.847443,291.344513 507.512665,296.508270 
	C501.567596,326.611359 473.908417,342.507446 444.923645,332.099548 
	C448.308594,320.019775 453.819489,309.307159 464.131714,301.086365 
z"/>
<path fill="#A8A436" opacity="1.000000" stroke="none" 
	d="
M773.784180,270.108765 
	C767.889648,261.130463 767.651550,252.250656 773.506958,243.726501 
	C778.649536,236.240021 786.248352,233.170715 795.198975,234.538757 
	C804.851685,236.014145 810.958008,241.895889 813.523987,251.258957 
	C816.081604,260.591736 811.855042,270.740326 803.550781,275.810425 
	C795.270569,280.865845 784.252930,279.967560 777.122864,273.614380 
	C776.011047,272.623657 775.037598,271.477631 773.784180,270.108765 
z"/>
<path fill="#A8A436" opacity="1.000000" stroke="none" 
	d="
M589.189087,240.113754 
	C598.062134,233.660110 607.831604,233.185928 616.001587,238.582855 
	C623.701843,243.669510 627.611572,253.299698 625.550415,262.102692 
	C623.321289,271.623138 616.051636,278.135406 606.033203,279.586334 
	C597.506531,280.821198 588.312195,276.036530 583.902466,268.069672 
	C579.593445,260.284760 580.513306,249.850266 586.129578,243.218735 
	C586.988586,242.204422 587.986206,241.307465 589.189087,240.113754 
z"/>
<path fill="#F79724" opacity="1.000000" stroke="none" 
	d="
M570.085510,369.855652 
	C567.022217,383.749481 553.178711,393.158051 539.445862,394.893372 
	C532.354553,369.946259 545.980347,352.258026 569.908447,347.944305 
	C571.724182,355.099030 571.570435,362.248962 570.085510,369.855652 
z"/>
<path fill="#F79621" opacity="1.000000" stroke="none" 
	d="
M1259.748535,556.013367 
	C1260.813232,556.812622 1261.889893,557.589478 1261.911011,558.394165 
	C1262.059204,564.027832 1261.989502,569.667236 1261.989502,575.651123 
	C1254.696289,575.651123 1247.651611,575.651123 1240.301270,575.651123 
	C1240.301270,569.261597 1240.301270,562.884033 1240.301270,556.003845 
	C1246.723999,556.003845 1252.998047,556.003845 1259.748535,556.013367 
z"/>
<path fill="#F79621" opacity="1.000000" stroke="none" 
	d="
M1101.971191,556.000549 
	C1105.095825,556.000549 1107.730347,556.000549 1110.680664,556.000549 
	C1110.680664,562.697876 1110.680664,569.074158 1110.680664,575.726501 
	C1103.996460,575.726501 1097.404175,575.726501 1090.404541,575.726501 
	C1090.404541,569.483032 1090.404541,563.102905 1090.404541,556.000549 
	C1093.981934,556.000549 1097.731323,556.000549 1101.971191,556.000549 
z"/>
<path fill="#7A7A7C" opacity="1.000000" stroke="none" 
	d="
M675.268677,723.197998 
	C677.414917,720.359985 676.221130,715.358276 681.713440,714.918762 
	C682.425476,726.013306 683.110229,736.682983 683.794922,747.352722 
	C682.976501,747.418457 682.158081,747.484192 681.339661,747.549988 
	C680.739929,739.164734 680.140198,730.779541 679.540527,722.394287 
	C679.198792,722.308533 678.857056,722.222778 678.515320,722.137085 
	C675.086182,730.664001 671.657043,739.190857 668.227905,747.717773 
	C667.699402,747.745422 667.170898,747.773010 666.642395,747.800598 
	C663.362732,739.331055 660.083008,730.861511 656.803284,722.391907 
	C656.508179,722.424683 656.213074,722.457458 655.917969,722.490234 
	C655.254578,730.857178 654.591248,739.224060 653.927917,747.591003 
	C653.322632,747.559021 652.717346,747.526978 652.112122,747.494995 
	C651.944153,746.787781 651.588196,746.067322 651.636597,745.375305 
	C652.263916,736.417175 652.893372,727.458313 653.684387,718.513916 
	C653.791504,717.302551 654.781799,716.169373 655.363159,715.000000 
	C656.249207,716.020813 657.492981,716.899597 657.963623,718.085327 
	C661.190430,726.215454 664.255310,734.409851 667.536621,743.014404 
	C670.176941,736.229431 672.643616,729.890442 675.268677,723.197998 
z"/>
<path fill="#737375" opacity="1.000000" stroke="none" 
	d="
M757.440430,722.506836 
	C761.861206,729.075562 766.062744,735.355164 770.264282,741.634766 
	C770.587463,741.560730 770.910583,741.486755 771.233765,741.412781 
	C771.233765,732.652039 771.233765,723.891357 771.233765,714.460083 
	C773.857971,717.452881 774.470154,741.025757 772.156311,749.041870 
	C765.247864,738.828796 758.991699,729.580017 751.889282,719.080261 
	C751.889282,729.519287 751.889282,738.446655 751.889282,747.374023 
	C751.465088,747.363037 751.040955,747.351990 750.616760,747.340942 
	C750.616760,736.666138 750.616760,725.991333 750.616760,715.316467 
	C750.886658,715.043640 751.156494,714.770813 751.426392,714.497986 
	C753.358032,717.071228 755.289673,719.644409 757.440430,722.506836 
z"/>
<path fill="#828283" opacity="1.000000" stroke="none" 
	d="
M249.661499,738.882812 
	C249.661926,736.428711 249.661926,734.453491 249.661926,732.060913 
	C243.703186,732.060913 238.151367,732.060913 231.717987,732.060913 
	C231.717987,737.161377 231.717987,742.279480 231.717987,748.257446 
	C228.704056,745.130920 228.192978,720.099487 231.391159,714.989929 
	C231.556259,717.150146 231.789764,719.307983 231.867798,721.471375 
	C231.950775,723.771729 231.886444,726.077393 231.886444,728.745789 
	C237.773636,728.745789 243.320282,728.745789 249.841034,728.745789 
	C249.841034,724.120605 249.841034,719.527283 249.841034,714.067932 
	C253.228073,717.473328 253.544571,743.822571 249.924286,747.572388 
	C249.836548,744.835510 249.748795,742.098633 249.661499,738.882812 
z"/>
<path fill="#7E7E7F" opacity="1.000000" stroke="none" 
	d="
M821.823669,747.915588 
	C814.360901,748.288879 808.296631,746.317078 805.219604,739.571655 
	C802.195129,732.941711 802.489563,726.143494 807.353210,720.345093 
	C812.450867,714.267883 819.375488,713.939514 826.568481,715.314026 
	C827.292969,715.452454 827.924500,716.077454 828.379456,717.628113 
	C827.000122,717.472595 825.612793,717.368164 824.242737,717.153381 
	C812.044922,715.241455 803.984192,723.838013 806.873108,735.694763 
	C808.884338,743.949707 816.491333,747.426758 826.950256,744.416748 
	C826.950256,742.829590 826.950256,741.058289 826.950256,739.286926 
	C826.950256,737.643250 826.950256,735.999512 826.950256,734.035706 
	C824.272034,733.712219 821.878418,733.423157 819.484802,733.134094 
	C819.520569,732.661377 819.556335,732.188660 819.592102,731.715942 
	C822.723816,731.715942 825.855591,731.715942 829.836975,731.715942 
	C829.836975,735.783569 830.529114,740.366882 829.490662,744.517273 
	C829.084534,746.140625 824.792480,746.791687 821.823669,747.915588 
z"/>
<path fill="#7A7A7C" opacity="1.000000" stroke="none" 
	d="
M1004.522644,747.913940 
	C995.356628,744.747803 992.031494,739.068237 992.899597,728.700806 
	C993.523315,721.252380 998.499084,715.710815 1005.520752,714.644714 
	C1012.256165,713.622131 1018.401550,716.835876 1020.802673,723.174683 
	C1025.113403,734.555054 1020.059265,749.697876 1004.522644,747.913940 
M996.002747,735.827026 
	C997.363098,741.061218 1000.336548,744.841125 1005.866211,745.806641 
	C1010.156860,746.555786 1013.639954,744.767517 1016.329285,741.396912 
	C1020.524353,736.139038 1020.467102,726.087158 1016.209900,720.884338 
	C1011.152649,714.703491 1001.323914,715.263611 997.898132,722.515564 
	C996.171021,726.171570 996.477051,730.788025 996.002747,735.827026 
z"/>
<path fill="#828283" opacity="1.000000" stroke="none" 
	d="
M953.451050,732.950317 
	C951.540039,732.906494 950.055603,732.906494 947.636597,732.906494 
	C947.636597,737.924622 947.636597,742.688782 947.636597,748.581848 
	C944.852356,745.052795 944.179688,728.235229 945.445923,716.003662 
	C952.375061,713.339966 960.144775,714.626587 962.713501,718.863098 
	C965.184937,722.939270 964.001953,727.129272 959.724304,731.191833 
	C961.528870,736.755859 963.210449,741.940918 964.892090,747.125916 
	C964.186462,747.383423 963.480835,747.640991 962.775208,747.898499 
	C961.901428,745.377258 960.774292,742.910828 960.214233,740.321716 
	C959.413452,736.619080 958.017029,733.690552 953.451050,732.950317 
M956.947754,729.835449 
	C960.753967,728.046265 962.236145,724.830261 960.604980,721.198914 
	C958.142639,715.717529 953.034424,717.120483 948.312012,717.283447 
	C948.312012,721.938904 948.312012,726.285339 948.312012,731.061340 
	C951.250671,730.675232 953.703308,730.353027 956.947754,729.835449 
z"/>
<path fill="#7B7B7C" opacity="1.000000" stroke="none" 
	d="
M612.297241,733.052673 
	C610.069641,732.983521 608.268372,732.983521 606.204834,732.983521 
	C605.916870,737.986084 605.641907,742.763916 605.366882,747.541748 
	C604.749023,747.519104 604.131104,747.496460 603.513184,747.473877 
	C603.328735,746.297424 602.991028,745.121887 602.984314,743.944458 
	C602.937561,735.787842 603.134338,727.625427 602.879211,719.476562 
	C602.767212,715.898682 604.063049,714.646301 607.436890,714.885254 
	C609.257874,715.014282 611.099426,714.835632 612.924072,714.935120 
	C616.891174,715.151245 620.054260,716.694824 621.343811,720.742432 
	C622.601440,724.689819 621.337097,727.908875 618.155334,730.449951 
	C617.672729,730.835388 617.198853,731.231812 617.502075,730.983521 
	C619.388123,736.733154 621.083740,741.902100 622.779358,747.071045 
	C622.099060,747.333923 621.418762,747.596802 620.738464,747.859680 
	C620.070374,746.117554 619.302002,744.406250 618.755066,742.626892 
	C617.607422,738.893250 617.575623,734.492249 612.297241,733.052673 
M612.933289,717.095703 
	C610.680542,717.095703 608.427795,717.095703 606.211182,717.095703 
	C606.211182,722.065002 606.211182,726.305908 606.211182,730.505127 
	C613.721497,731.182373 617.780273,729.617310 618.768555,725.568787 
	C619.818665,721.267395 617.948730,718.494690 612.933289,717.095703 
z"/>
<path fill="#78787A" opacity="1.000000" stroke="none" 
	d="
M394.378754,743.314270 
	C394.807556,744.841248 395.097992,746.030579 395.388397,747.219971 
	C394.828186,747.448914 394.267944,747.677856 393.707703,747.906799 
	C392.661957,745.423035 391.388245,743.006592 390.628967,740.438171 
	C389.710083,737.329834 388.292267,735.931030 384.704620,736.046204 
	C376.440399,736.311523 376.460754,736.087769 373.315674,744.012756 
	C372.803101,745.304321 371.919983,746.448792 371.208160,747.661255 
	C370.740662,747.445923 370.273163,747.230530 369.805664,747.015198 
	C370.723969,744.300598 371.590302,741.567139 372.570679,738.875183 
	C375.064911,732.026367 377.555389,725.174866 380.184540,718.377563 
	C380.666168,717.132324 381.794556,716.137268 382.624390,715.026733 
	C383.453857,716.104553 384.596344,717.062500 385.062195,718.279480 
	C388.201752,726.481201 391.197845,734.737793 394.378754,743.314270 
M387.546600,733.706726 
	C386.031067,728.911438 384.515503,724.116150 382.705963,718.390625 
	C380.648102,724.162903 378.971924,728.864624 377.162292,733.940552 
	C380.831360,733.940552 383.792877,733.940552 387.546600,733.706726 
z"/>
<path fill="#78787A" opacity="1.000000" stroke="none" 
	d="
M557.663208,719.582397 
	C558.746643,717.821472 559.696472,716.422791 560.646301,715.024109 
	C561.576416,716.432739 562.797119,717.729858 563.387817,719.268799 
	C566.476562,727.315369 569.417053,735.419067 572.377136,743.514587 
	C572.807373,744.691101 573.066040,745.930420 573.404053,747.140747 
	C572.988281,747.356995 572.572510,747.573242 572.156799,747.789490 
	C571.308655,746.335083 569.976501,744.967468 569.697266,743.410950 
	C568.563843,737.093140 564.889526,735.021606 558.847412,736.116638 
	C557.414856,736.376282 555.895081,736.155151 554.463745,736.155151 
	C552.745972,740.218872 551.151978,743.989624 549.558044,747.760315 
	C548.910767,747.495361 548.263550,747.230408 547.616272,746.965454 
	C550.920654,737.958496 554.225098,728.951538 557.663208,719.582397 
M565.149658,731.371765 
	C563.680725,727.376831 562.211853,723.381897 560.511108,718.756531 
	C558.575562,724.155151 556.885559,728.868713 555.057678,733.967041 
	C558.589478,733.967041 561.413635,734.046814 564.223755,733.884216 
	C564.664368,733.858765 565.041382,732.732788 565.149658,731.371765 
z"/>
<path fill="#737375" opacity="1.000000" stroke="none" 
	d="
M137.438416,747.527222 
	C135.826630,746.741821 133.669479,745.980530 133.650543,745.169312 
	C133.418411,735.223450 133.499420,725.270203 133.499420,715.314026 
	C139.310181,715.314026 144.547180,715.314026 149.784164,715.314026 
	C149.822418,715.794922 149.860657,716.275818 149.898911,716.756714 
	C145.545837,716.956482 141.192780,717.156250 136.429001,717.374878 
	C136.429001,721.052734 136.429001,724.759827 136.429001,728.884888 
	C140.545044,729.108765 144.796478,729.340027 149.047913,729.571289 
	C149.025299,730.110168 149.002701,730.649109 148.980103,731.188049 
	C144.830399,731.387878 140.680679,731.587708 136.284988,731.799377 
	C136.284988,736.275513 136.284988,740.532654 136.284988,745.501526 
	C141.092575,745.501526 145.783340,745.501526 150.474106,745.501526 
	C150.494629,746.177063 150.515137,746.852600 150.535645,747.528137 
	C146.319290,747.528137 142.102951,747.528137 137.438416,747.527222 
z"/>
<path fill="#7B7B7C" opacity="1.000000" stroke="none" 
	d="
M1142.442261,726.036377 
	C1142.157959,728.898071 1141.730347,731.395752 1141.939209,733.838989 
	C1142.626587,741.883118 1148.661011,746.458801 1157.303345,745.666260 
	C1159.216919,745.490845 1161.112793,745.121948 1163.463867,744.776428 
	C1159.778931,749.512512 1149.464233,749.057312 1144.096924,744.440491 
	C1137.638184,738.884705 1136.995972,726.717712 1142.803711,719.935486 
	C1147.752808,714.155945 1158.429321,712.550903 1163.872559,717.702148 
	C1154.697998,716.281738 1146.374634,715.666260 1142.442261,726.036377 
z"/>
<path fill="#7A7A7C" opacity="1.000000" stroke="none" 
	d="
M897.377441,715.196533 
	C900.311279,715.018677 902.805542,714.792725 905.279297,714.931274 
	C910.918457,715.247009 914.289185,718.275391 914.786011,723.222290 
	C915.269104,728.033264 912.427246,732.113770 907.250793,733.454712 
	C904.742859,734.104431 902.068848,734.113281 899.120728,734.452454 
	C898.903809,738.774597 898.683655,743.160034 898.463562,747.545410 
	C898.022827,747.570740 897.582092,747.596069 897.141357,747.621460 
	C896.755371,747.025269 896.037109,746.431335 896.033081,745.832642 
	C895.968140,736.211792 895.978943,726.590271 896.039429,716.969360 
	C896.042908,716.415710 896.618958,715.865601 897.377441,715.196533 
M909.552979,718.816101 
	C906.190063,718.059387 902.827148,717.302673 899.178162,716.481628 
	C899.178162,722.344543 899.178162,726.909241 899.178162,731.414551 
	C905.154297,732.353027 908.984253,731.484253 910.772339,728.546082 
	C912.666443,725.433838 912.674438,722.260803 909.552979,718.816101 
z"/>
<path fill="#78787A" opacity="1.000000" stroke="none" 
	d="
M331.361572,748.001099 
	C323.743134,746.867126 319.142670,742.976807 317.751160,735.673462 
	C316.366821,728.407593 317.818695,721.968994 324.086334,717.522644 
	C329.623047,713.594849 335.686920,713.685669 342.255280,716.817444 
	C328.065887,715.060791 318.553192,718.888000 320.440460,734.961670 
	C321.431671,743.403687 326.355286,745.382874 342.951202,745.099915 
	C339.001251,748.311829 335.355896,748.025879 331.361572,748.001099 
z"/>
<path fill="#7A7A7C" opacity="1.000000" stroke="none" 
	d="
M1248.153809,745.837646 
	C1252.574341,745.741089 1255.952759,744.494263 1256.521118,739.987488 
	C1257.084717,735.517944 1253.980957,733.496582 1250.355591,732.074890 
	C1249.581787,731.771545 1248.794922,731.496094 1248.038940,731.153198 
	C1244.535400,729.564026 1241.119995,727.270447 1241.689941,723.172546 
	C1242.065186,720.474915 1244.073242,717.190918 1246.349854,715.760376 
	C1249.842285,713.565674 1254.093506,713.725342 1257.527832,717.592163 
	C1255.947388,717.373779 1254.371704,717.109436 1252.785522,716.946228 
	C1249.051025,716.562134 1245.513062,717.032959 1244.343872,721.247864 
	C1243.214844,725.317322 1246.125977,727.269897 1249.263062,728.822327 
	C1251.195679,729.778748 1253.216919,730.573975 1255.084106,731.641296 
	C1258.546631,733.620544 1260.216797,737.053772 1258.873047,740.507690 
	C1257.809570,743.241577 1255.291016,746.185791 1252.668701,747.355103 
	C1248.719116,749.116333 1244.392334,748.303406 1240.932861,745.761353 
	C1241.048706,745.261536 1241.164551,744.761658 1241.280396,744.261841 
	C1243.437378,744.781372 1245.594238,745.300842 1248.153809,745.837646 
z"/>
<path fill="#737375" opacity="1.000000" stroke="none" 
	d="
M1096.136230,737.067261 
	C1096.136108,739.995422 1096.136108,742.444885 1096.136108,745.571533 
	C1101.381958,745.571533 1106.066650,745.571533 1110.751465,745.571533 
	C1110.754395,746.011719 1110.757324,746.451904 1110.760132,746.892090 
	C1105.266235,746.892090 1099.772339,746.892090 1094.062622,746.892090 
	C1094.062622,736.511047 1094.062622,726.083069 1094.062622,715.494690 
	C1099.411865,715.494690 1104.633789,715.494690 1109.855835,715.494690 
	C1109.868530,715.895020 1109.881348,716.295349 1109.894165,716.695679 
	C1105.615234,716.695679 1101.336304,716.695679 1096.596924,716.695679 
	C1096.596924,721.062683 1096.596924,724.753601 1096.596924,729.349426 
	C1100.759033,729.349426 1105.016968,729.349426 1109.274902,729.349426 
	C1109.276733,729.923950 1109.278564,730.498474 1109.280518,731.072998 
	C1105.187500,731.072998 1101.094482,731.072998 1096.455688,731.072998 
	C1096.318604,733.439270 1096.227417,735.013855 1096.136230,737.067261 
z"/>
<path fill="#828283" opacity="1.000000" stroke="none" 
	d="
M194.805237,714.936279 
	C197.303925,714.936279 199.332550,714.936279 201.361191,714.936279 
	C201.387802,715.570129 201.414429,716.203979 201.441040,716.837769 
	C198.095245,717.126953 194.749451,717.416138 190.429199,717.789490 
	C190.429199,727.780762 190.429199,737.654541 190.429199,747.528381 
	C189.777359,747.522034 189.125504,747.515686 188.473663,747.509399 
	C188.473663,737.601929 188.473663,727.694519 188.473663,717.720032 
	C184.192078,717.412354 180.856354,717.172668 177.520630,716.932922 
	C177.523346,716.267395 177.526062,715.601868 177.528793,714.936340 
	C183.130920,714.936340 188.733063,714.936340 194.805237,714.936279 
z"/>
<path fill="#6E6E70" opacity="1.000000" stroke="none" 
	d="
M511.146973,715.000916 
	C515.481018,715.000671 519.337891,715.000671 523.194763,715.000671 
	C523.207825,715.596985 523.220947,716.193237 523.234009,716.789551 
	C518.840881,716.789551 514.447754,716.789551 509.823120,716.789551 
	C509.823120,721.584473 509.823120,725.474548 509.823120,729.957397 
	C514.044556,729.957397 517.944519,729.957397 521.844482,729.957397 
	C521.882080,730.496094 521.919678,731.034729 521.957214,731.573425 
	C517.954163,731.814636 513.951111,732.055847 509.084320,732.349121 
	C509.084320,737.468628 509.084320,742.418030 509.084320,747.367432 
	C508.686096,747.397766 508.287842,747.428162 507.889618,747.458496 
	C507.605988,746.968262 507.078094,746.479614 507.074860,745.987549 
	C507.013947,736.657776 507.124756,727.325378 506.940643,717.998718 
	C506.880188,714.936768 508.491760,714.830322 511.146973,715.000916 
z"/>
<path fill="#888889" opacity="1.000000" stroke="none" 
	d="
M425.087219,732.995728 
	C425.087280,726.681885 425.087280,720.866760 425.087280,715.051697 
	C425.956268,715.038452 426.825256,715.025269 427.694244,715.012024 
	C428.239197,724.912659 427.667755,734.898743 428.028320,745.561035 
	C433.141327,745.561035 437.781952,745.561035 442.422546,745.561035 
	C442.428619,746.044617 442.434723,746.528259 442.440796,747.011841 
	C436.906860,747.011841 431.372955,747.011841 425.087189,747.011841 
	C425.087189,742.653748 425.087189,738.074097 425.087219,732.995728 
z"/>
<path fill="#6E6E70" opacity="1.000000" stroke="none" 
	d="
M287.999084,743.777222 
	C288.158661,746.651184 288.061340,748.809143 284.014954,747.582458 
	C284.014954,737.537109 283.950287,727.255005 284.139923,716.977722 
	C284.154816,716.170227 285.941895,715.395508 287.999207,713.708740 
	C287.999207,724.711243 287.999207,734.008118 287.999084,743.777222 
z"/>
<path fill="#888889" opacity="1.000000" stroke="none" 
	d="
M1061.912598,721.163208 
	C1061.909302,727.462524 1062.126587,733.294128 1061.848145,739.101929 
	C1061.476685,746.849976 1055.163696,750.400757 1049.010010,746.564514 
	C1049.145630,746.277954 1049.265503,745.754761 1049.425659,745.742065 
	C1058.593384,745.018616 1059.071533,744.489136 1059.085938,734.837891 
	C1059.093628,729.682129 1059.051392,724.525879 1059.110229,719.370789 
	C1059.126953,717.900391 1059.418701,716.433167 1059.584473,714.964478 
	C1060.163574,714.956238 1060.742676,714.948059 1061.321777,714.939819 
	C1061.518677,716.854858 1061.715698,718.769836 1061.912598,721.163208 
z"/>
<path fill="#6E6E70" opacity="1.000000" stroke="none" 
	d="
M1204.115723,734.984375 
	C1204.115845,739.316956 1204.115845,743.153931 1204.115845,746.990845 
	C1203.525879,746.989380 1202.935791,746.987915 1202.345825,746.986511 
	C1202.345825,737.280823 1202.345825,727.575195 1202.345825,717.068115 
	C1198.120239,717.068115 1194.652344,717.068115 1191.184326,717.068115 
	C1191.196289,716.588501 1191.208252,716.108887 1191.220093,715.629272 
	C1199.065308,715.629272 1206.910522,715.629272 1214.755615,715.629272 
	C1214.789551,716.002319 1214.823364,716.375366 1214.857178,716.748413 
	C1211.566650,716.943726 1208.276123,717.139038 1204.115723,717.385925 
	C1204.115723,723.034363 1204.115723,728.761475 1204.115723,734.984375 
z"/>
<path fill="#6E6E70" opacity="1.000000" stroke="none" 
	d="
M717.991577,717.362549 
	C717.997803,726.770996 718.040955,735.713318 717.942932,744.653992 
	C717.930969,745.741577 717.159973,746.820862 716.740723,747.903931 
	C716.161011,746.817383 715.094971,745.738220 715.078308,744.643188 
	C714.942322,735.703491 714.965027,726.760437 715.058777,717.819641 
	C715.068420,716.906555 715.861389,716.001648 716.290771,715.092957 
	C716.855774,715.693909 717.420715,716.294922 717.991577,717.362549 
z"/>
<path fill="#FEFEFE" opacity="1.000000" stroke="none" 
	d="
M939.566406,625.763977 
	C941.320312,644.465332 931.291138,658.903687 914.707336,662.124512 
	C898.241211,665.322510 881.806213,654.824158 878.156555,638.776550 
	C874.366211,622.110413 884.162842,605.614929 900.509338,601.139343 
	C917.896057,596.379089 934.782898,606.874634 939.566406,625.763977 
z"/>
<path fill="#FCFCFC" opacity="1.000000" stroke="none" 
	d="
M733.752930,628.747314 
	C737.960388,616.422302 742.033752,604.483887 746.533936,591.294373 
	C751.807068,606.746948 756.686951,621.047363 761.713928,635.778687 
	C751.376770,635.778687 741.780518,635.778687 731.571777,635.778687 
	C732.300110,633.414490 732.959473,631.274170 733.752930,628.747314 
z"/>
<path fill="#FFFEFD" opacity="1.000000" stroke="none" 
	d="
M646.196045,601.635254 
	C658.108093,608.024719 664.381775,617.580688 664.043274,630.826477 
	C663.722473,643.377441 657.671692,652.626770 646.407898,658.214233 
	C633.738831,664.498840 618.602966,661.318420 609.189209,650.615051 
	C599.997009,640.163574 598.868591,625.092529 606.382812,613.135742 
	C613.683472,601.518799 628.338379,596.030518 641.642212,599.956177 
	C643.071716,600.378052 644.457886,600.946472 646.196045,601.635254 
z"/>
<path fill="#FEF8F3" opacity="1.000000" stroke="none" 
	d="
M701.009277,479.252380 
	C700.574524,486.638947 700.151550,493.553558 699.728577,500.468170 
	C699.531616,500.486664 699.334717,500.505157 699.137756,500.523651 
	C697.375244,479.906616 695.612793,459.289612 693.818787,438.304626 
	C697.199646,438.304626 700.109741,438.304626 703.787415,438.304626 
	C702.865479,451.793640 701.943298,465.287048 701.009277,479.252380 
z"/>
<path fill="#FFFEFD" opacity="1.000000" stroke="none" 
	d="
M401.997162,649.971924 
	C387.148346,629.848389 396.886841,604.348633 420.891174,599.618591 
	C437.822388,596.282349 454.308655,609.197632 456.631683,627.617676 
	C458.639923,643.541382 444.608093,660.079590 428.455261,660.994202 
	C417.950409,661.589111 409.198242,658.155823 401.997162,649.971924 
z"/>
<path fill="#FCFCFC" opacity="1.000000" stroke="none" 
	d="
M995.933228,735.398560 
	C996.477051,730.788025 996.171021,726.171570 997.898132,722.515564 
	C1001.323914,715.263611 1011.152649,714.703491 1016.209900,720.884338 
	C1020.467102,726.087158 1020.524353,736.139038 1016.329285,741.396912 
	C1013.639954,744.767517 1010.156860,746.555786 1005.866211,745.806641 
	C1000.336548,744.841125 997.363098,741.061218 995.933228,735.398560 
z"/>
<path fill="#FCFCFC" opacity="1.000000" stroke="none" 
	d="
M956.551880,729.933105 
	C953.703308,730.353027 951.250671,730.675232 948.312012,731.061340 
	C948.312012,726.285339 948.312012,721.938904 948.312012,717.283447 
	C953.034424,717.120483 958.142639,715.717529 960.604980,721.198914 
	C962.236145,724.830261 960.753967,728.046265 956.551880,729.933105 
z"/>
<path fill="#FCFCFC" opacity="1.000000" stroke="none" 
	d="
M613.348633,717.157166 
	C617.948730,718.494690 619.818665,721.267395 618.768555,725.568787 
	C617.780273,729.617310 613.721497,731.182373 606.211182,730.505127 
	C606.211182,726.305908 606.211182,722.065002 606.211182,717.095703 
	C608.427795,717.095703 610.680542,717.095703 613.348633,717.157166 
z"/>
<path fill="#F7F7F7" opacity="1.000000" stroke="none" 
	d="
M387.150482,733.823608 
	C383.792877,733.940552 380.831360,733.940552 377.162292,733.940552 
	C378.971924,728.864624 380.648102,724.162903 382.705963,718.390625 
	C384.515503,724.116150 386.031067,728.911438 387.150482,733.823608 
z"/>
<path fill="#F7F7F7" opacity="1.000000" stroke="none" 
	d="
M565.298767,731.743713 
	C565.041382,732.732788 564.664368,733.858765 564.223755,733.884216 
	C561.413635,734.046814 558.589478,733.967041 555.057678,733.967041 
	C556.885559,728.868713 558.575562,724.155151 560.511108,718.756531 
	C562.211853,723.381897 563.680725,727.376831 565.298767,731.743713 
z"/>
<path fill="#FCFCFC" opacity="1.000000" stroke="none" 
	d="
M909.852417,719.084717 
	C912.674438,722.260803 912.666443,725.433838 910.772339,728.546082 
	C908.984253,731.484253 905.154297,732.353027 899.178162,731.414551 
	C899.178162,726.909241 899.178162,722.344543 899.178162,716.481628 
	C902.827148,717.302673 906.190063,718.059387 909.852417,719.084717 
z"/>
</svg>